<svg width="640" height="429" viewBox="0 0 640 429" fill="none" xmlns="http://www.w3.org/2000/svg">
<rect width="640" height="429" fill="#C55151"/>
<rect width="640" height="429" fill="white"/>
<path d="M197.5 39L293.196 175.5H101.804L197.5 39Z" fill="#1D9F98"/>
<rect x="104" y="174" width="186" height="177" fill="#66AC71"/>
<ellipse cx="197.5" cy="92" rx="10.5" ry="11" fill="#C4C4C4"/>
<rect x="177" y="302" width="48" height="49" fill="#C4C4C4"/>
<line x1="197" y1="38.5" x2="440" y2="38.5" stroke="#1D9F98"/>
<line x1="290" y1="173.5" x2="440" y2="173.5" stroke="#1D9F98"/>
<line x1="440.5" y1="37" x2="440.5" y2="174" stroke="#1D9F98"/>
<rect x="120" y="299" width="28" height="28" fill="#C4C4C4"/>
<rect x="247" y="299" width="24" height="28" fill="#C4C4C4"/>
<rect x="290" y="174" width="150" height="177" fill="#66AC71"/>
<rect x="290" y="37" width="150" height="137" fill="#1D9F98"/>
<line x1="290.5" y1="171" x2="290.5" y2="351" stroke="#1D9F98"/>
<line x1="440.5" y1="174" x2="440.5" y2="351" stroke="#1D9F98"/>
<line x1="290" y1="350.5" x2="440" y2="350.5" stroke="#1D9F98"/>
<path d="M261 59C265.405 67.1434 268 77.0878 268 86.4444C268 89.3725 269.157 94.1572 271 96" stroke="#1D9F98" stroke-width="10" stroke-linecap="round"/>
<path d="M277 115C278.439 121.877 281 129.569 281 136.5C281 140.348 284.052 143.185 285.778 146.444C289.333 153.161 285.69 161.38 289 168" stroke="#1D9F98" stroke-width="10" stroke-linecap="round"/>
<path d="M288 156C285.742 143.865 285 130.341 285 118C285 108.676 284 99.4343 284 90.1111C284 89.1627 283.44 85.5904 284.056 84.6667C284.967 83.2989 285.529 87.6316 285.944 89.2222C287.007 93.2948 287 97.3837 287 101.556C287 106.704 287 111.852 287 117" stroke="#1D9F98" stroke-width="10" stroke-linecap="round"/>
<path d="M227 75C238.822 76.5012 250.371 78.658 262.111 80.4444C264.214 80.7645 277.91 82 268.944 82C263.723 82 262.872 82.3769 258.667 84.6111C252.924 87.6621 246.907 90.3847 241.389 93.8333C239.677 94.9034 238.466 96 236.389 96C233.132 96 226.602 97.2114 224 95C221.056 92.4972 221.287 83.675 220.778 80.2222C219.763 73.3451 218.68 65.6143 213.778 60.2222C211.398 57.6045 210.42 53.4101 207 51.9444C206 51.516 200.938 46.7748 202.611 47.5556C208.205 50.166 211.057 58.4541 215.167 62.7222C223.172 71.0356 228.176 86.8682 239.222 91.7778C242.331 93.1594 246.267 97.2673 248.778 99.7778C252.641 103.641 256.208 107.862 259.778 112C263.007 115.743 266.789 118.416 270.5 121.556C271.114 122.075 274.898 126.144 274.167 126.111C266.799 125.776 258.465 120.801 251.389 118.611C244.822 116.579 241.583 111.066 236.5 107C234.86 105.688 233.169 104 236.333 104C248.795 104 263.442 112.679 272.556 121C274.623 122.888 277.351 123.842 277 127C276.892 127.969 272.762 133.794 271.556 135C268.998 137.558 266.175 139.458 263 141.222C256.746 144.697 266.473 147.047 270.167 148.278C274.672 149.78 280.864 149.16 285.5 148.944C286.242 148.91 292.612 148 291.278 148C287.512 148 283.81 147.848 280.056 147.5C279.077 147.409 266.974 146.062 271 147.5C273.292 148.319 276.869 151.64 277 154C277.218 157.93 278.392 157.55 276 153.222C270.502 143.273 265.713 129.633 265 118.222C264.82 115.337 260.253 107.702 261.167 110.444C264.785 121.299 271.965 131.856 278.056 141.5C281.609 147.126 283 150.82 283 157.5C283 159.411 281.828 161.408 279.444 159.778C277.418 158.391 273.918 151.632 272.556 149.556C269.174 144.403 267.137 138.61 263 134C260.894 131.653 258.899 128.522 257.778 126C254.739 119.162 263.16 131.232 264.556 132.778C267.902 136.483 270.332 141.292 275.944 139.889C277.836 139.416 278.828 135.683 279.333 134.444C282.16 127.517 284.84 120.481 287.222 113.389C290.054 104.961 292 96.5708 292 87.6667C292 85.1594 293.393 80 290 80C285.702 80 278.224 82.2272 275.056 85C270.96 88.584 269.202 87.5496 268.778 93.7778C268.209 102.118 267.559 110.626 268 119C268.231 123.389 279.165 129.325 283 127.556C290.755 123.976 297.347 113.055 299.778 105.222C302.887 95.2042 273.809 80.6869 270.556 91.3333C268.905 96.7348 269 102.471 269 108.056C269 117.235 289.709 109.723 294.111 107.056C298.641 104.31 298.69 101.896 293 101.222C289.212 100.774 272.677 98.2859 270 102.222C268.739 104.076 268.384 106.479 267.222 108.222C266.475 109.343 271.796 108.788 271.889 108.778C275.951 108.32 279.921 108.105 284 108C289.219 107.866 291.989 102.804 295.944 100.167C297.302 99.2617 301.965 98 300.333 98C298.358 98 296.359 97.9096 294.389 98.0556C286.358 98.6504 276.443 101.177 270.056 106.5C263.955 111.583 262.187 100.128 265 96.6667C271.664 88.465 283.942 86.2982 293 82.2222C295.786 80.9684 298.106 78.8062 301 77.4444C305.203 75.4665 299.094 82.4374 298.5 83C294.003 87.2608 288.32 90.8389 282.056 91.9444C279.023 92.4797 274.238 95 271.5 95C270.384 95 270.283 95.3733 269.5 96C269.463 96.0298 275.417 93.8318 276.778 93C280.437 90.7639 284.384 88.288 287.222 85.2222C289.279 83.0006 289.597 79.8045 290.778 77C291.742 74.7103 288.606 72.2173 287.222 70.7778C284.217 67.6521 282.971 67.8743 278.444 68C274.094 68.1208 264 77.2627 264 82C264 86.4417 264.858 87.3038 269.889 86.9444C272.735 86.7411 281.444 82.6401 281.944 79.3889C283.795 67.3599 266.231 77.6017 260.778 79C260.361 79.1068 248.866 82.4127 251.444 83.7778C256.617 86.5161 265.093 82.2623 269.778 80.2222C279.76 75.8753 285.038 75.3713 289.5 65.5556C292.443 59.0818 282.21 60 278.556 60C271.972 60 266.073 68.688 264.778 74C263.207 80.4414 260.751 86.4997 261 93.2222C261.098 95.8652 265.312 100.109 268 97.5556C270.57 95.1142 273.3 90.9892 273.944 87.4444C275.064 81.2857 264.092 82.9773 260.5 83.6111C257.991 84.0539 249 86.4597 249 90C249 93.5 249 97 249 100.5C249 109.722 264.743 94.2113 266 92.4444C270.715 85.8175 280.561 78.7775 281 70C281.246 65.0756 270.904 70.018 269.222 70.7778C262.294 73.9067 257.344 80.747 254.111 87.4444C252.388 91.0129 254.803 102.447 252.5 99.2222C250.614 96.5821 252.624 91.559 251.944 88.5C251.55 86.723 248.656 80.6926 247.444 80C245 78.6033 242.327 73.7428 240.778 71.3333C238.682 68.0735 235.259 65.8847 233.222 63C231.207 60.1453 227.066 58.9776 231.778 63C237.084 67.5294 242.447 74.6185 245 81C245.269 81.6733 249.779 87.2774 247.444 87.9444C244.811 88.6968 239.109 84.8656 237.556 82.8889C234.979 79.6092 233.9 76.19 231.778 72.8889C229.608 69.5141 226.575 66.316 224.056 63.1667C223.559 62.5465 221.605 61 221.722 61C226.054 61 228.465 65.6672 231.444 68.4444C236.935 73.5629 248.991 83 257 83C258.971 83 263.184 83.727 259.222 82C256.768 80.9304 252.833 77.7235 251.222 75.5556C248.927 72.4664 246.305 67.2562 245 63.6667C243.67 60.0095 249.88 63.7416 252.111 63.9444C262.6 64.898 272.874 65.4501 283.333 64.0556C285.51 63.7653 274.043 67.5722 271.667 67.7778C264.376 68.4087 258.144 67.5449 251.222 69.7778C249.57 70.3107 240.087 72.1494 243 72C248.259 71.7303 253.089 69.3476 258.222 68.4444C266.142 67.0512 274.437 67.3665 282.444 66.7778C284.025 66.6616 308.82 63.7872 308.722 63.4444C307.968 60.8062 298.167 62.1694 295.889 61.4444C282.054 57.0424 267.268 60.4281 253.556 57C242.227 54.168 228.792 56 217 56C208.542 56 222.22 56.0863 224 56.2222C234.543 57.027 244.408 59 255 59" stroke="#1D9F98" stroke-width="10" stroke-linecap="round"/>
<path d="M250 111C244.874 114.884 240.996 118.149 237.556 123.556C236.724 124.863 235.119 128.944 236.389 128.056C240.53 125.157 244.081 120.594 247.889 117.278C257.449 108.952 267.509 101.274 277.556 93.5556C280.505 91.2897 289.085 84.1647 286.333 86.6667C279.638 92.7531 271.722 97.2499 264.722 102.944C257.945 108.458 246.038 114.925 242 123" stroke="#1D9F98" stroke-width="10" stroke-linecap="round"/>
<path d="M205 49C234.593 49 264.185 49 293.778 49C304.764 49 294.717 49 290.222 49C287.058 49 281.69 47.6964 280.222 51C275.614 61.3677 291.241 52 293 52" stroke="#1D9F98" stroke-width="10" stroke-linecap="round"/>
<path d="M222 44C231.263 44 241.087 43.6085 250 46.4444C254.165 47.7697 258.669 48 263 48C272.986 48 283.017 48.2496 293 48C297.804 47.8799 312.084 46 307.278 46C304.06 46 301.361 44 298 44C293.5 44 289 44 284.5 44C279.648 44 274.796 44 269.944 44C262.265 44 255.107 42 247.5 42C231.333 42 215.167 42 199 42" stroke="#1D9F98" stroke-width="10" stroke-linecap="round"/>
<line x1="288.5" y1="173" x2="288.5" y2="37" stroke="#66AC71"/>
<line x1="288.997" y1="173.5" x2="439.997" y2="172.5" stroke="white"/>
<rect x="334" y="134" width="46" height="40" fill="#C4C4C4"/>
<line x1="357.5" y1="135" x2="357.5" y2="171" stroke="#66AC71"/>
<line x1="380" y1="154.5" x2="334" y2="154.5" stroke="#66AC71"/>
<rect x="345" y="303" width="28" height="48" fill="#C4C4C4"/>
</svg>
